<svg width="171" height="58" viewBox="0 0 171 58" fill="none" xmlns="http://www.w3.org/2000/svg">
<g clip-path="url(#clip0_1956_122)">
<path d="M157.383 0.0868557H13.6251C13.101 0.0868557 12.5833 0.0868557 12.0607 0.0897137C11.6232 0.0925717 11.1892 0.100874 10.7475 0.107862C9.78796 0.119154 8.83066 0.203571 7.88394 0.360381C6.93855 0.520605 6.02277 0.822672 5.16758 1.25637C4.31344 1.69373 3.53298 2.26204 2.85453 2.94068C2.17251 3.6174 1.604 4.39961 1.17085 5.25722C0.736507 6.11312 0.435331 7.03029 0.277726 7.97707C0.118623 8.92265 0.0330076 9.87913 0.0216494 10.8379C0.00838823 11.2761 0.00698781 11.7157 0 12.1538V45.1842C0.00698781 45.6279 0.00838823 46.0577 0.0216494 46.5016C0.0330111 47.4604 0.118626 48.4168 0.277726 49.3623C0.434896 50.3096 0.73609 51.2273 1.17085 52.0836C1.6038 52.9384 2.1724 53.7174 2.85453 54.3904C3.53041 55.0721 4.31137 55.6408 5.16758 56.0748C6.02276 56.5096 6.93844 56.8135 7.88394 56.9762C8.83082 57.1317 9.78802 57.2162 10.7475 57.2288C11.1892 57.2386 11.6232 57.2441 12.0607 57.2441C12.5833 57.247 13.1011 57.247 13.6251 57.247H157.383C157.896 57.247 158.418 57.247 158.932 57.2441C159.367 57.2441 159.814 57.2386 160.249 57.2288C161.207 57.2169 162.162 57.1324 163.107 56.9762C164.056 56.8124 164.975 56.5086 165.834 56.0748C166.689 55.6405 167.47 55.0718 168.145 54.3904C168.825 53.7148 169.395 52.9363 169.833 52.0836C170.265 51.2267 170.563 50.3091 170.718 49.3623C170.877 48.4167 170.966 47.4604 170.983 46.5016C170.989 46.0577 170.989 45.6279 170.989 45.1842C171 44.665 171 44.1487 171 43.6212V13.714C171 13.1907 171 12.6716 170.989 12.1538C170.989 11.7157 170.989 11.2761 170.983 10.8379C170.966 9.87899 170.877 8.92272 170.718 7.97701C170.563 7.03079 170.264 6.11368 169.833 5.25716C168.951 3.53818 167.553 2.13894 165.834 1.25624C164.975 0.823603 164.056 0.521616 163.107 0.360253C162.162 0.202752 161.207 0.118305 160.249 0.107662C159.814 0.100688 159.367 0.0923145 158.932 0.0895279C158.418 0.0866699 157.896 0.0868557 157.383 0.0868557Z" fill="#A6A6A6"/>
<path d="M12.0672 55.9964C11.6318 55.9964 11.2069 55.9908 10.775 55.9811C9.88009 55.9694 8.98731 55.8915 8.10396 55.748C7.28027 55.6061 6.48234 55.3423 5.73648 54.9651C4.99746 54.591 4.32342 54.1005 3.74017 53.5123C3.14848 52.9311 2.65587 52.257 2.28186 51.5167C1.90374 50.7716 1.64205 49.973 1.50592 49.1486C1.35891 48.2628 1.27937 47.3671 1.26799 46.4692C1.25893 46.1678 1.24707 45.1644 1.24707 45.1644V12.1536C1.24707 12.1536 1.2597 11.1656 1.26806 10.8753C1.27896 9.9789 1.35804 9.08459 1.5046 8.20015C1.64099 7.3735 1.90288 6.57254 2.28121 5.825C2.65384 5.08523 3.14371 4.41062 3.73184 3.82733C4.3193 3.2385 4.9955 2.74547 5.73578 2.36622C6.47992 1.99022 7.27635 1.7282 8.09837 1.58893C8.98463 1.44398 9.8805 1.36561 10.7785 1.35448L12.0679 1.33704H158.924L160.229 1.35518C161.118 1.36576 162.006 1.44343 162.884 1.58753C163.715 1.72855 164.519 1.9924 165.272 2.3704C166.755 3.1347 167.962 4.34389 168.723 5.82849C169.095 6.57087 169.353 7.36529 169.488 8.1848C169.636 9.0765 169.719 9.97784 169.736 10.8816C169.74 11.2863 169.74 11.721 169.74 12.1536C169.752 12.6895 169.752 13.1996 169.752 13.7138V43.6209C169.752 44.1401 169.752 44.6467 169.74 45.1574C169.74 45.6221 169.74 46.0478 169.735 46.4859C169.718 47.3736 169.636 48.2588 169.491 49.1346C169.357 49.9649 169.097 50.7698 168.719 51.521C168.342 52.2533 167.852 52.9215 167.268 53.5012C166.684 54.0925 166.009 54.5859 165.268 54.9623C164.517 55.3424 163.714 55.6073 162.884 55.748C162.001 55.8923 161.108 55.9702 160.213 55.9811C159.795 55.9908 159.356 55.9964 158.931 55.9964L157.382 55.9992L12.0672 55.9964Z" fill="black"/>
<path d="M35.3944 29.0963C35.4098 27.9036 35.7266 26.7341 36.3154 25.6967C36.9042 24.6594 37.7458 23.7878 38.7619 23.163C38.1164 22.2411 37.2648 21.4824 36.2747 20.9471C35.2847 20.4119 34.1835 20.1149 33.0586 20.0797C30.6589 19.8278 28.3326 21.5156 27.1098 21.5156C25.8633 21.5156 23.9806 20.1047 21.9532 20.1464C20.6419 20.1888 19.3638 20.5701 18.2437 21.2533C17.1235 21.9364 16.1994 22.8981 15.5614 24.0446C12.7977 28.8294 14.8592 35.8616 17.5066 39.7294C18.8311 41.6233 20.3791 43.7389 22.4047 43.6639C24.3868 43.5816 25.127 42.3999 27.5196 42.3999C29.89 42.3999 30.5845 43.6639 32.6512 43.6162C34.7781 43.5816 36.1181 41.7138 37.3962 39.802C38.3479 38.4525 39.0802 36.961 39.566 35.3827C38.3303 34.8601 37.2758 33.9853 36.534 32.8674C35.7922 31.7495 35.3958 30.438 35.3944 29.0963Z" fill="white"/>
<path d="M31.4909 17.5361C32.6506 16.1439 33.2219 14.3546 33.0835 12.548C31.3118 12.7341 29.6752 13.5808 28.4999 14.9196C27.9252 15.5736 27.4851 16.3344 27.2047 17.1586C26.9243 17.9828 26.809 18.8542 26.8655 19.723C27.7517 19.7321 28.6284 19.54 29.4296 19.1612C30.2308 18.7824 30.9356 18.2267 31.4909 17.5361Z" fill="white"/>
<path d="M60.4496 38.8692H53.6856L52.0613 43.6656H49.1963L55.6031 25.9203H58.5797L64.9864 43.6656H62.0726L60.4496 38.8692ZM54.3862 36.656H59.7478L57.1047 28.8718H57.0307L54.3862 36.656Z" fill="white"/>
<path d="M78.8227 37.1974C78.8227 41.2179 76.6709 43.801 73.4235 43.801C72.6009 43.844 71.7828 43.6545 71.0629 43.2542C70.343 42.8539 69.7503 42.2589 69.3528 41.5374H69.2914V47.9456H66.6357V30.7278H69.2063V32.8797H69.2552C69.6709 32.1617 70.2736 31.5698 70.999 31.1671C71.7244 30.7643 72.5454 30.5657 73.3747 30.5925C76.6583 30.5925 78.8227 33.1881 78.8227 37.1974ZM76.0931 37.1974C76.0931 34.5781 74.7395 32.856 72.6741 32.856C70.6451 32.856 69.2803 34.6143 69.2803 37.1974C69.2803 39.8042 70.6451 41.55 72.6741 41.55C74.7395 41.55 76.0931 39.8405 76.0931 37.1974Z" fill="white"/>
<path d="M93.063 37.1974C93.063 41.2179 90.9111 43.8009 87.6638 43.8009C86.8412 43.844 86.0231 43.6545 85.3031 43.2542C84.5832 42.8538 83.9906 42.2589 83.5931 41.5374H83.5316V47.9456H80.876V30.7278H83.4465V32.8797H83.4953C83.9111 32.1617 84.5138 31.5698 85.2392 31.167C85.9646 30.7643 86.7856 30.5657 87.6149 30.5925C90.8986 30.5925 93.063 33.1881 93.063 37.1974ZM90.3334 37.1974C90.3334 34.5781 88.9797 32.856 86.9144 32.856C84.8853 32.856 83.5205 34.6143 83.5205 37.1974C83.5205 39.8042 84.8853 41.55 86.9144 41.55C88.9797 41.55 90.3334 39.8405 90.3334 37.1974Z" fill="white"/>
<path d="M102.474 38.7213C102.671 40.481 104.381 41.6365 106.717 41.6365C108.955 41.6365 110.566 40.481 110.566 38.8943C110.566 37.5169 109.594 36.6922 107.294 36.127L104.995 35.573C101.736 34.7859 100.223 33.262 100.223 30.7892C100.223 27.7274 102.892 25.6244 106.68 25.6244C110.43 25.6244 113.001 27.7274 113.087 30.7892H110.406C110.246 29.0183 108.782 27.9493 106.643 27.9493C104.503 27.9493 103.04 29.0308 103.04 30.605C103.04 31.8595 103.975 32.5978 106.262 33.1629L108.217 33.6429C111.858 34.504 113.37 35.9665 113.37 38.5621C113.37 41.882 110.726 43.9613 106.52 43.9613C102.585 43.9613 99.9275 41.9309 99.7559 38.7212L102.474 38.7213Z" fill="white"/>
<path d="M119.101 27.6661V30.7279H121.561V32.8309H119.101V39.9633C119.101 41.0714 119.594 41.5877 120.675 41.5877C120.967 41.5826 121.259 41.5621 121.549 41.5263V43.6167C121.063 43.7076 120.568 43.7487 120.074 43.7395C117.454 43.7395 116.433 42.7557 116.433 40.2466V32.8309H114.552V30.7279H116.433V27.6661H119.101Z" fill="white"/>
<path d="M122.986 37.1974C122.986 33.1267 125.384 30.5687 129.122 30.5687C132.874 30.5687 135.26 33.1266 135.26 37.1974C135.26 41.2792 132.886 43.826 129.122 43.826C125.36 43.826 122.986 41.2792 122.986 37.1974ZM132.554 37.1974C132.554 34.405 131.274 32.7569 129.122 32.7569C126.97 32.7569 125.692 34.4175 125.692 37.1974C125.692 40.0009 126.97 41.6365 129.122 41.6365C131.274 41.6365 132.554 40.0009 132.554 37.1974Z" fill="white"/>
<path d="M137.449 30.7278H139.982V32.9299H140.044C140.215 32.2422 140.618 31.6344 141.185 31.2087C141.751 30.783 142.447 30.5654 143.156 30.5925C143.462 30.5914 143.767 30.6246 144.065 30.6915V33.1755C143.679 33.0575 143.276 33.0033 142.872 33.0151C142.486 32.9994 142.102 33.0674 141.745 33.2145C141.388 33.3615 141.067 33.584 140.804 33.8668C140.541 34.1496 140.342 34.4859 140.222 34.8527C140.101 35.2195 140.061 35.608 140.105 35.9917V43.6656H137.449L137.449 30.7278Z" fill="white"/>
<path d="M156.31 39.8656C155.953 42.2142 153.666 43.826 150.739 43.826C146.976 43.826 144.64 41.3043 144.64 37.2588C144.64 33.2007 146.988 30.5687 150.628 30.5687C154.207 30.5687 156.458 33.0276 156.458 36.9504V37.8602H147.32V38.0207C147.278 38.4969 147.338 38.9765 147.495 39.4279C147.653 39.8792 147.904 40.2919 148.234 40.6385C148.563 40.9851 148.962 41.2577 149.405 41.4382C149.847 41.6187 150.323 41.7029 150.801 41.6853C151.428 41.7441 152.058 41.5988 152.596 41.2709C153.135 40.943 153.553 40.4502 153.789 39.8656L156.31 39.8656ZM147.333 36.0042H153.801C153.825 35.5761 153.76 35.1477 153.61 34.7458C153.461 34.344 153.23 33.9774 152.932 33.6691C152.634 33.3607 152.275 33.1173 151.879 32.9541C151.482 32.7909 151.056 32.7114 150.628 32.7206C150.195 32.718 149.767 32.8011 149.366 32.9651C148.966 33.129 148.603 33.3706 148.296 33.6759C147.99 33.9812 147.747 34.3441 147.582 34.7437C147.416 35.1434 147.332 35.5718 147.333 36.0042Z" fill="white"/>
<path d="M54.0535 12.5633C54.6103 12.5233 55.169 12.6074 55.6893 12.8095C56.2096 13.0116 56.6786 13.3267 57.0624 13.732C57.4462 14.1373 57.7353 14.6227 57.9087 15.1533C58.0822 15.6838 58.1358 16.2463 58.0656 16.8C58.0656 19.5241 56.5933 21.0899 54.0535 21.0899H50.9736V12.5633H54.0535ZM52.298 19.884H53.9056C54.3034 19.9078 54.7016 19.8426 55.071 19.6931C55.4405 19.5436 55.7719 19.3136 56.0413 19.0199C56.3106 18.7261 56.5111 18.376 56.6281 17.995C56.7451 17.614 56.7756 17.2117 56.7175 16.8174C56.7714 16.4247 56.7378 16.0249 56.619 15.6467C56.5002 15.2685 56.2992 14.9212 56.0305 14.6298C55.7618 14.3384 55.4319 14.11 55.0645 13.9611C54.6972 13.8121 54.3014 13.7462 53.9056 13.7682H52.298V19.884Z" fill="white"/>
<path d="M59.5612 17.8697C59.5208 17.4468 59.5692 17.0202 59.7032 16.6171C59.8373 16.214 60.0542 15.8434 60.3399 15.5291C60.6256 15.2147 60.9739 14.9635 61.3624 14.7917C61.7509 14.6198 62.171 14.531 62.5958 14.531C63.0206 14.531 63.4407 14.6198 63.8292 14.7917C64.2176 14.9635 64.5659 15.2147 64.8516 15.5291C65.1373 15.8434 65.3542 16.214 65.4883 16.6171C65.6224 17.0202 65.6708 17.4468 65.6303 17.8697C65.6715 18.293 65.6237 18.7202 65.49 19.124C65.3562 19.5277 65.1395 19.899 64.8537 20.2139C64.5679 20.5289 64.2194 20.7806 63.8305 20.9529C63.4417 21.1251 63.0211 21.2141 62.5958 21.2141C62.1705 21.2141 61.7499 21.1251 61.361 20.9529C60.9721 20.7806 60.6236 20.5289 60.3378 20.2139C60.052 19.899 59.8353 19.5277 59.7015 19.124C59.5678 18.7202 59.52 18.293 59.5612 17.8697ZM64.3241 17.8697C64.3241 16.4749 63.6975 15.6592 62.5979 15.6592C61.494 15.6592 60.8731 16.4749 60.8731 17.8697C60.8731 19.2757 61.4941 20.0851 62.5979 20.0851C63.6975 20.0851 64.3241 19.2701 64.3241 17.8697Z" fill="white"/>
<path d="M73.6984 21.0898H72.3811L71.0512 16.3507H70.9507L69.6263 21.0898H68.3215L66.5479 14.6552H67.8359L68.9886 19.5652H69.0835L70.4064 14.6552H71.6247L72.9477 19.5652H73.0481L74.1952 14.6552H75.4651L73.6984 21.0898Z" fill="white"/>
<path d="M76.957 14.6551H78.1795V15.6773H78.2744C78.4354 15.3101 78.7069 15.0024 79.0511 14.7969C79.3953 14.5914 79.7951 14.4984 80.1946 14.5309C80.5077 14.5073 80.8221 14.5545 81.1145 14.669C81.4068 14.7835 81.6697 14.9622 81.8836 15.1921C82.0975 15.4219 82.2569 15.6969 82.3501 15.9968C82.4433 16.2966 82.4678 16.6136 82.4218 16.9242V21.0897H81.1519V17.2431C81.1519 16.209 80.7026 15.6947 79.7634 15.6947C79.5508 15.6848 79.3386 15.721 79.1413 15.8008C78.9441 15.8806 78.7664 16.0021 78.6204 16.157C78.4745 16.3118 78.3638 16.4964 78.2958 16.6981C78.2279 16.8998 78.2044 17.1138 78.2269 17.3254V21.0898H76.957L76.957 14.6551Z" fill="white"/>
<path d="M84.4453 12.1432H85.7152V21.0898H84.4453V12.1432Z" fill="white"/>
<path d="M87.4801 17.8697C87.4397 17.4468 87.4881 17.0201 87.6223 16.617C87.7564 16.2139 87.9733 15.8433 88.259 15.529C88.5448 15.2146 88.8931 14.9634 89.2816 14.7915C89.6701 14.6197 90.0902 14.5309 90.515 14.5309C90.9398 14.5309 91.36 14.6197 91.7485 14.7915C92.137 14.9634 92.4853 15.2146 92.771 15.529C93.0568 15.8433 93.2737 16.2139 93.4078 16.617C93.5419 17.0201 93.5903 17.4468 93.5499 17.8697C93.5911 18.293 93.5432 18.7203 93.4094 19.124C93.2757 19.5277 93.0589 19.899 92.7731 20.2139C92.4873 20.5289 92.1387 20.7806 91.7498 20.9528C91.3609 21.1251 90.9403 21.214 90.515 21.214C90.0897 21.214 89.6691 21.1251 89.2802 20.9528C88.8913 20.7806 88.5428 20.5289 88.257 20.2139C87.9712 19.899 87.7544 19.5277 87.6206 19.124C87.4868 18.7203 87.439 18.293 87.4801 17.8697ZM92.243 17.8697C92.243 16.4749 91.6164 15.6592 90.5168 15.6592C89.4129 15.6592 88.792 16.4749 88.792 17.8697C88.792 19.2757 89.413 20.0851 90.5168 20.0851C91.6164 20.0851 92.243 19.2701 92.243 17.8697Z" fill="white"/>
<path d="M94.8867 19.27C94.8867 18.1117 95.7491 17.444 97.28 17.3491L99.023 17.2486V16.6932C99.023 16.0136 98.5737 15.6298 97.7056 15.6298C96.9967 15.6298 96.5055 15.8901 96.3646 16.345H95.1351C95.2649 15.2398 96.3046 14.5309 97.7643 14.5309C99.3775 14.5309 100.287 15.334 100.287 16.6932V21.0898H99.0649V20.1855H98.9644C98.7605 20.5099 98.4741 20.7743 98.1345 20.9518C97.795 21.1293 97.4144 21.2135 97.0316 21.1958C96.7615 21.2239 96.4885 21.1951 96.2302 21.1112C95.9719 21.0273 95.734 20.8902 95.5319 20.7088C95.3298 20.5273 95.168 20.3056 95.0569 20.0578C94.9457 19.8099 94.8878 19.5416 94.8867 19.27ZM99.023 18.7202V18.1822L97.4517 18.2827C96.5655 18.342 96.1636 18.6434 96.1636 19.2107C96.1636 19.7898 96.666 20.1268 97.3568 20.1268C97.5592 20.1473 97.7637 20.1269 97.958 20.0668C98.1524 20.0066 98.3327 19.908 98.4881 19.7767C98.6436 19.6455 98.771 19.4843 98.8629 19.3028C98.9548 19.1213 99.0093 18.9232 99.023 18.7202Z" fill="white"/>
<path d="M101.956 17.8697C101.956 15.8364 103.001 14.5484 104.627 14.5484C105.029 14.5298 105.428 14.6262 105.778 14.8261C106.127 15.026 106.412 15.3212 106.6 15.6773H106.695V12.1432H107.965V21.0898H106.748V20.0731H106.648C106.445 20.4268 106.15 20.7184 105.794 20.9163C105.438 21.1142 105.034 21.2108 104.627 21.1958C102.99 21.1959 101.956 19.9078 101.956 17.8697ZM103.268 17.8697C103.268 19.2345 103.911 20.0557 104.987 20.0557C106.057 20.0557 106.719 19.2226 106.719 17.8753C106.719 16.5342 106.051 15.6892 104.987 15.6892C103.918 15.6892 103.268 16.516 103.268 17.8697Z" fill="white"/>
<path d="M113.219 17.8697C113.179 17.4468 113.227 17.0202 113.361 16.6171C113.496 16.214 113.712 15.8434 113.998 15.5291C114.284 15.2147 114.632 14.9635 115.021 14.7917C115.409 14.6198 115.829 14.531 116.254 14.531C116.679 14.531 117.099 14.6198 117.487 14.7917C117.876 14.9635 118.224 15.2147 118.51 15.5291C118.796 15.8434 119.012 16.214 119.146 16.6171C119.281 17.0202 119.329 17.4468 119.289 17.8697C119.33 18.293 119.282 18.7202 119.148 19.124C119.014 19.5277 118.798 19.899 118.512 20.2139C118.226 20.5289 117.878 20.7806 117.489 20.9529C117.1 21.1251 116.679 21.2141 116.254 21.2141C115.829 21.2141 115.408 21.1251 115.019 20.9529C114.63 20.7806 114.282 20.5289 113.996 20.2139C113.71 19.899 113.493 19.5277 113.36 19.124C113.226 18.7202 113.178 18.293 113.219 17.8697ZM117.982 17.8697C117.982 16.4749 117.356 15.6592 116.256 15.6592C115.152 15.6592 114.531 16.4749 114.531 17.8697C114.531 19.2757 115.152 20.0851 116.256 20.0851C117.356 20.0851 117.982 19.2701 117.982 17.8697Z" fill="white"/>
<path d="M120.992 14.6551H122.215V15.6773H122.31C122.471 15.3101 122.742 15.0024 123.086 14.7969C123.43 14.5914 123.83 14.4984 124.23 14.5309C124.543 14.5073 124.857 14.5545 125.15 14.669C125.442 14.7835 125.705 14.9622 125.919 15.1921C126.133 15.4219 126.292 15.6969 126.385 15.9968C126.478 16.2966 126.503 16.6136 126.457 16.9242V21.0897H125.187V17.2431C125.187 16.209 124.738 15.6947 123.799 15.6947C123.586 15.6848 123.374 15.721 123.176 15.8008C122.979 15.8806 122.802 16.0021 122.656 16.157C122.51 16.3118 122.399 16.4964 122.331 16.6981C122.263 16.8998 122.24 17.1138 122.262 17.3254V21.0898H120.992V14.6551Z" fill="white"/>
<path d="M133.634 13.0531V14.6844H135.028V15.7541H133.634V19.0629C133.634 19.7369 133.911 20.032 134.544 20.032C134.705 20.0315 134.867 20.0217 135.028 20.0027V21.0605C134.8 21.1013 134.569 21.123 134.337 21.1254C132.925 21.1254 132.362 20.6286 132.362 19.388V15.7541H131.341V14.6844H132.362V13.0531H133.634Z" fill="white"/>
<path d="M136.762 12.1432H138.02V15.6892H138.121C138.29 15.3186 138.569 15.0091 138.92 14.8028C139.271 14.5966 139.677 14.5036 140.083 14.5365C140.394 14.5195 140.706 14.5715 140.995 14.6888C141.284 14.806 141.544 14.9856 141.755 15.2147C141.967 15.4439 142.125 15.7169 142.219 16.0143C142.313 16.3117 142.341 16.6262 142.299 16.9354V21.0898H141.028V17.2487C141.028 16.2209 140.549 15.7003 139.652 15.7003C139.434 15.6824 139.214 15.7124 139.009 15.7882C138.803 15.8641 138.617 15.9839 138.462 16.1392C138.308 16.2946 138.19 16.4819 138.115 16.6878C138.041 16.8938 138.012 17.1135 138.032 17.3317V21.0898H136.762L136.762 12.1432Z" fill="white"/>
<path d="M149.704 19.3523C149.532 19.9404 149.158 20.4491 148.648 20.7894C148.138 21.1298 147.525 21.28 146.916 21.2139C146.492 21.2251 146.071 21.1439 145.681 20.976C145.292 20.808 144.944 20.5574 144.661 20.2414C144.378 19.9254 144.167 19.5516 144.043 19.146C143.92 18.7404 143.885 18.3127 143.943 17.8926C143.887 17.4713 143.922 17.0427 144.045 16.6359C144.169 16.2291 144.378 15.8536 144.66 15.5348C144.941 15.216 145.288 14.9614 145.676 14.7882C146.064 14.615 146.485 14.5272 146.91 14.5309C148.701 14.5309 149.781 15.7541 149.781 17.7747V18.2178H145.237V18.289C145.217 18.5251 145.247 18.7628 145.324 18.9868C145.402 19.2108 145.525 19.4162 145.686 19.5897C145.848 19.7633 146.043 19.9012 146.261 19.9947C146.479 20.0881 146.714 20.135 146.951 20.1324C147.255 20.1689 147.562 20.1142 147.835 19.9753C148.107 19.8363 148.333 19.6195 148.482 19.3523L149.704 19.3523ZM145.237 17.2786H148.487C148.503 17.0627 148.474 16.8457 148.401 16.6418C148.328 16.4378 148.214 16.2514 148.064 16.0944C147.915 15.9374 147.735 15.8134 147.535 15.7302C147.335 15.6471 147.12 15.6067 146.903 15.6117C146.684 15.6089 146.466 15.6502 146.262 15.733C146.059 15.8158 145.874 15.9385 145.719 16.0938C145.563 16.2492 145.441 16.434 145.358 16.6375C145.275 16.841 145.234 17.059 145.237 17.2786Z" fill="white"/>
</g>
<defs>
<clipPath id="clip0_1956_122">
<rect width="171" height="57.16" fill="white" transform="translate(0 0.0866699)"/>
</clipPath>
</defs>
</svg>
